<svg width="200" height="175" viewBox="0 0 200 175" fill="none" xmlns="http://www.w3.org/2000/svg">
<path fill-rule="evenodd" clip-rule="evenodd" d="M101.254 0.339069C100.479 -0.110908 99.5213 -0.110906 98.7456 0.33907L25.488 42.8332C24.717 43.2804 24.2424 44.1044 24.2424 44.9957V130.004C24.2424 130.896 24.717 131.72 25.488 132.167L98.7456 174.661C99.5213 175.111 100.479 175.111 101.254 174.661L174.512 132.167C175.283 131.72 175.758 130.896 175.758 130.004V44.9957C175.758 44.1044 175.283 43.2804 174.512 42.8332L101.254 0.339069ZM101.254 20.5534C100.479 20.1035 99.5214 20.1035 98.7456 20.5534L42.9123 52.9404C42.1413 53.3876 41.6667 54.2115 41.6667 55.1029V119.897C41.6667 120.788 42.1413 121.612 42.9123 122.06L98.7456 154.447C99.5214 154.897 100.479 154.897 101.254 154.447L157.088 122.06C157.859 121.612 158.333 120.788 158.333 119.897V55.1029C158.333 54.2115 157.859 53.3876 157.088 52.9404L101.254 20.5534Z" fill="#D3D3D3"/>
<mask id="mask0_12_3" style="mask-type:alpha" maskUnits="userSpaceOnUse" x="0" y="29" width="200" height="117">
<path d="M100 87.5L200 29.4935V145.506L100 87.5L0 145.506V29.4935L100 87.5Z" fill="#E5E5E5"/>
</mask>
<g mask="url(#mask0_12_3)">
<path fill-rule="evenodd" clip-rule="evenodd" d="M200 29.4935L100 -28.5129L0 29.4935V145.506L100 203.513L200 145.506V29.4935ZM182 39.9347L100 -7.63059L18 39.9347V135.065L100 182.631L182 135.065V39.9347Z" fill="#C80000"/>
<path fill-rule="evenodd" clip-rule="evenodd" d="M100 29.4935V-28.5129L0 29.4935V145.506L100 203.513V145.506V29.4935ZM99.9999 182.631V-7.63062L17.9999 39.9347V135.065L99.9999 182.631Z" fill="#00346B"/>
</g>
<mask id="mask1_12_3" style="mask-type:alpha" maskUnits="userSpaceOnUse" x="24" y="43" width="152" height="89">
<path d="M100 87.5L175.758 43.5557V131.444L100 87.5L24.2424 131.444V43.5557L100 87.5Z" fill="#E5E5E5"/>
</mask>
<g mask="url(#mask1_12_3)">
<path fill-rule="evenodd" clip-rule="evenodd" d="M103.754 1.78923C102.088 0.822456 100 2.02498 100 3.95174V24.1661C100 22.2393 102.088 21.0368 103.754 22.0036L157.088 52.9403C157.859 53.3876 158.333 54.2115 158.333 55.1029V119.897C158.333 120.788 157.859 121.612 157.088 122.06L103.754 152.996C102.088 153.963 100 152.761 100 150.834V171.048C100 172.975 102.088 174.178 103.754 173.211L174.512 132.167C175.283 131.72 175.758 130.896 175.758 130.004V44.9957C175.758 44.1044 175.283 43.2804 174.512 42.8332L103.754 1.78923Z" fill="#C80000"/>
<path fill-rule="evenodd" clip-rule="evenodd" d="M100 3.95178C100 2.02501 97.9123 0.822486 96.2456 1.78926L25.488 42.8332C24.717 43.2805 24.2424 44.1044 24.2424 44.9957V130.004C24.2424 130.896 24.717 131.72 25.488 132.167L96.2456 173.211C97.9123 174.178 100 172.975 100 171.048V154.784C99.5668 154.784 99.1335 154.672 98.7457 154.447L42.9123 122.06C42.1413 121.612 41.6667 120.788 41.6667 119.897V55.1029C41.6667 54.2115 42.1413 53.3876 42.9123 52.9404L98.7457 20.5534C99.1335 20.3285 99.5668 20.216 100 20.216V3.95178Z" fill="#00346B"/>
</g>
<path d="M60.4382 83.3056V70.2147H68.5561V71.915H62.4134V75.9036H67.9744V77.5975H62.4134V83.3056H60.4382ZM70.9851 83.3056V70.2147H75.6513C76.6655 70.2147 77.5071 70.3894 78.1761 70.7388C78.8494 71.0883 79.3523 71.5719 79.6847 72.1898C80.017 72.8035 80.1832 73.513 80.1832 74.3184C80.1832 75.1195 80.0149 75.8248 79.6783 76.4342C79.3459 77.0393 78.843 77.5101 78.1697 77.8468C77.5007 78.1834 76.6591 78.3518 75.6449 78.3518H72.1101V76.6515H75.4659C76.1051 76.6515 76.625 76.5599 77.0256 76.3766C77.4304 76.1934 77.7266 75.9271 77.9141 75.5776C78.1016 75.2282 78.1953 74.8084 78.1953 74.3184C78.1953 73.8241 78.0994 73.3958 77.9077 73.0336C77.7202 72.6714 77.424 72.3944 77.0192 72.2026C76.6186 72.0066 76.0923 71.9086 75.4403 71.9086H72.9602V83.3056H70.9851ZM77.4474 77.3994L80.6818 83.3056H78.4318L75.2614 77.3994H77.4474ZM83.6925 83.3056H81.5959L86.3068 70.2147H88.5888L93.2997 83.3056H91.2031L87.5021 72.5925H87.3999L83.6925 83.3056ZM84.044 78.1792H90.8452V79.8411H84.044V78.1792ZM105.756 70.2147V83.3056H103.941L97.2868 73.7048H97.1653V83.3056H95.1902V70.2147H97.0183L103.679 79.8283H103.8V70.2147H105.756ZM119.51 74.4718H117.516C117.439 74.0457 117.297 73.6707 117.088 73.3468C116.879 73.0229 116.623 72.7481 116.321 72.5222C116.018 72.2964 115.679 72.1259 115.304 72.0109C114.934 71.8958 114.539 71.8383 114.122 71.8383C113.368 71.8383 112.692 72.0279 112.096 72.4072C111.503 72.7864 111.034 73.3425 110.689 74.0755C110.348 74.8084 110.178 75.7033 110.178 76.7601C110.178 77.8255 110.348 78.7246 110.689 79.4576C111.034 80.1905 111.505 80.7445 112.102 81.1195C112.699 81.4945 113.37 81.682 114.115 81.682C114.529 81.682 114.921 81.6266 115.292 81.5158C115.667 81.4008 116.005 81.2324 116.308 81.0109C116.61 80.7893 116.866 80.5187 117.075 80.1991C117.288 79.8752 117.435 79.5045 117.516 79.0869L119.51 79.0932C119.404 79.7367 119.197 80.329 118.89 80.8702C118.588 81.4072 118.198 81.8717 117.721 82.2637C117.248 82.6515 116.706 82.9519 116.097 83.165C115.488 83.378 114.823 83.4846 114.103 83.4846C112.969 83.4846 111.959 83.2161 111.073 82.6792C110.186 82.138 109.488 81.3646 108.976 80.3589C108.469 79.3532 108.216 78.1536 108.216 76.7601C108.216 75.3624 108.471 74.1628 108.983 73.1614C109.494 72.1557 110.193 71.3844 111.079 70.8475C111.966 70.3063 112.973 70.0357 114.103 70.0357C114.797 70.0357 115.445 70.1359 116.046 70.3361C116.651 70.5322 117.194 70.8219 117.676 71.2055C118.157 71.5847 118.556 72.0492 118.871 72.5989C119.186 73.1444 119.4 73.7687 119.51 74.4718ZM121.874 83.3056V70.2147H130.081V71.915H123.849V75.9036H129.653V77.5975H123.849V81.6053H130.158V83.3056H121.874ZM60.4382 105.306V92.2147H68.6456V93.915H62.4134V97.9036H68.2173V99.5975H62.4134V103.605H68.7223V105.306H60.4382ZM78.4238 95.6536C78.3556 95.0485 78.0744 94.5798 77.5801 94.2474C77.0858 93.9107 76.4636 93.7424 75.7136 93.7424C75.1767 93.7424 74.7122 93.8276 74.3201 93.9981C73.9281 94.1643 73.6234 94.3944 73.4061 94.6884C73.193 94.9782 73.0865 95.3084 73.0865 95.6792C73.0865 95.9903 73.1589 96.2587 73.3038 96.4846C73.4529 96.7104 73.6468 96.9001 73.8855 97.0535C74.1284 97.2026 74.3883 97.3283 74.6653 97.4306C74.9423 97.5286 75.2086 97.6096 75.4643 97.6735L76.7427 98.0059C77.1603 98.1082 77.5886 98.2467 78.0275 98.4214C78.4664 98.5961 78.8734 98.8262 79.2484 99.1117C79.6234 99.3972 79.926 99.7509 80.1561 100.173C80.3904 100.595 80.5076 101.1 80.5076 101.688C80.5076 102.429 80.3159 103.088 79.9324 103.663C79.5531 104.238 79.0012 104.692 78.2768 105.024C77.5566 105.357 76.6852 105.523 75.6625 105.523C74.6824 105.523 73.8343 105.367 73.1184 105.056C72.4025 104.745 71.8422 104.304 71.4373 103.733C71.0325 103.158 70.8088 102.476 70.7662 101.688H72.7477C72.786 102.161 72.9395 102.555 73.2079 102.87C73.4806 103.181 73.8279 103.414 74.2498 103.567C74.676 103.716 75.1426 103.791 75.6497 103.791C76.2079 103.791 76.7044 103.703 77.139 103.529C77.5779 103.35 77.9231 103.102 78.1745 102.787C78.426 102.468 78.5517 102.095 78.5517 101.669C78.5517 101.281 78.4409 100.963 78.2193 100.716C78.002 100.469 77.7058 100.264 77.3308 100.102C76.96 99.9405 76.5403 99.7978 76.0716 99.6742L74.5247 99.2523C73.4764 98.9668 72.6454 98.5471 72.0318 97.9931C71.4224 97.4391 71.1177 96.7062 71.1177 95.7942C71.1177 95.04 71.3223 94.3816 71.7314 93.8191C72.1404 93.2566 72.6944 92.8198 73.3933 92.5087C74.0922 92.1934 74.8805 92.0357 75.7583 92.0357C76.6447 92.0357 77.4267 92.1913 78.1042 92.5023C78.786 92.8134 79.323 93.2417 79.715 93.7871C80.1071 94.3283 80.3116 94.9505 80.3287 95.6536H78.4238ZM82.8679 105.306V92.2147H87.5341C88.5526 92.2147 89.3963 92.4001 90.0653 92.7708C90.7344 93.1415 91.2351 93.6486 91.5675 94.2921C91.8999 94.9313 92.0661 95.6515 92.0661 96.4526C92.0661 97.258 91.8977 97.9824 91.5611 98.6259C91.2287 99.2651 90.7259 99.7722 90.0526 100.147C89.3835 100.518 88.5419 100.703 87.5277 100.703H84.3189V99.0286H87.3487C87.9922 99.0286 88.5142 98.9178 88.9148 98.6962C89.3153 98.4704 89.6094 98.1636 89.7969 97.7758C89.9844 97.388 90.0781 96.9469 90.0781 96.4526C90.0781 95.9583 89.9844 95.5194 89.7969 95.1359C89.6094 94.7523 89.3132 94.4519 88.9084 94.2346C88.5078 94.0173 87.9794 93.9086 87.3232 93.9086H84.843V105.306H82.8679ZM105.753 98.7601C105.753 100.158 105.497 101.36 104.986 102.365C104.475 103.367 103.774 104.138 102.883 104.679C101.997 105.216 100.989 105.485 99.8596 105.485C98.726 105.485 97.714 105.216 96.8233 104.679C95.937 104.138 95.2381 103.365 94.7267 102.359C94.2154 101.353 93.9597 100.154 93.9597 98.7601C93.9597 97.3624 94.2154 96.1628 94.7267 95.1614C95.2381 94.1557 95.937 93.3844 96.8233 92.8475C97.714 92.3063 98.726 92.0357 99.8596 92.0357C100.989 92.0357 101.997 92.3063 102.883 92.8475C103.774 93.3844 104.475 94.1557 104.986 95.1614C105.497 96.1628 105.753 97.3624 105.753 98.7601ZM103.797 98.7601C103.797 97.6948 103.624 96.7978 103.279 96.0691C102.938 95.3361 102.47 94.7822 101.873 94.4072C101.281 94.0279 100.61 93.8383 99.8596 93.8383C99.1053 93.8383 98.432 94.0279 97.8397 94.4072C97.2473 94.7822 96.7786 95.3361 96.4334 96.0691C96.0925 96.7978 95.9221 97.6948 95.9221 98.7601C95.9221 99.8255 96.0925 100.725 96.4334 101.458C96.7786 102.186 97.2473 102.74 97.8397 103.12C98.432 103.495 99.1053 103.682 99.8596 103.682C100.61 103.682 101.281 103.495 101.873 103.12C102.47 102.74 102.938 102.186 103.279 101.458C103.624 100.725 103.797 99.8255 103.797 98.7601ZM108.216 105.306V92.2147H112.882C113.896 92.2147 114.738 92.3894 115.407 92.7388C116.08 93.0883 116.583 93.5719 116.915 94.1898C117.248 94.8035 117.414 95.513 117.414 96.3184C117.414 97.1195 117.245 97.8248 116.909 98.4342C116.576 99.0393 116.074 99.5101 115.4 99.8468C114.731 100.183 113.89 100.352 112.875 100.352H109.341V98.6515H112.696C113.336 98.6515 113.855 98.5599 114.256 98.3766C114.661 98.1934 114.957 97.9271 115.145 97.5776C115.332 97.2282 115.426 96.8084 115.426 96.3184C115.426 95.8241 115.33 95.3958 115.138 95.0336C114.951 94.6714 114.654 94.3944 114.25 94.2026C113.849 94.0066 113.323 93.9086 112.671 93.9086H110.191V105.306H108.216ZM114.678 99.3994L117.912 105.306H115.662L112.492 99.3994H114.678ZM119.172 93.915V92.2147H129.303V93.915H125.218V105.306H123.25V93.915H119.172ZM138.682 95.6536C138.613 95.0485 138.332 94.5798 137.838 94.2474C137.344 93.9107 136.721 93.7424 135.971 93.7424C135.434 93.7424 134.97 93.8276 134.578 93.9981C134.186 94.1643 133.881 94.3944 133.664 94.6884C133.451 94.9782 133.344 95.3084 133.344 95.6792C133.344 95.9903 133.417 96.2587 133.562 96.4846C133.711 96.7104 133.905 96.9001 134.143 97.0535C134.386 97.2026 134.646 97.3283 134.923 97.4306C135.2 97.5286 135.466 97.6096 135.722 97.6735L137.001 98.0059C137.418 98.1082 137.846 98.2467 138.285 98.4214C138.724 98.5961 139.131 98.8262 139.506 99.1117C139.881 99.3972 140.184 99.7509 140.414 100.173C140.648 100.595 140.765 101.1 140.765 101.688C140.765 102.429 140.574 103.088 140.19 103.663C139.811 104.238 139.259 104.692 138.535 105.024C137.814 105.357 136.943 105.523 135.92 105.523C134.94 105.523 134.092 105.367 133.376 105.056C132.66 104.745 132.1 104.304 131.695 103.733C131.29 103.158 131.067 102.476 131.024 101.688H133.006C133.044 102.161 133.197 102.555 133.466 102.87C133.738 103.181 134.086 103.414 134.508 103.567C134.934 103.716 135.4 103.791 135.907 103.791C136.466 103.791 136.962 103.703 137.397 103.529C137.836 103.35 138.181 103.102 138.432 102.787C138.684 102.468 138.809 102.095 138.809 101.669C138.809 101.281 138.699 100.963 138.477 100.716C138.26 100.469 137.964 100.264 137.589 100.102C137.218 99.9405 136.798 99.7978 136.329 99.6742L134.782 99.2523C133.734 98.9668 132.903 98.5471 132.29 97.9931C131.68 97.4391 131.376 96.7062 131.376 95.7942C131.376 95.04 131.58 94.3816 131.989 93.8191C132.398 93.2566 132.952 92.8198 133.651 92.5087C134.35 92.1934 135.138 92.0357 136.016 92.0357C136.903 92.0357 137.684 92.1913 138.362 92.5023C139.044 92.8134 139.581 93.2417 139.973 93.7871C140.365 94.3283 140.569 94.9505 140.586 95.6536H138.682Z" fill="#D3D3D3"/>
</svg>
